<svg xmlns="http://www.w3.org/2000/svg" xmlns:xlink="http://www.w3.org/1999/xlink" width="800" zoomAndPan="magnify" viewBox="0 0 600 225" height="300" preserveAspectRatio="xMidYMid meet" version="1.0"><defs><g/><clipPath id="bfb7e3beb7"><path d="M 299.644531 84 L 392 84 L 392 97 L 299.644531 97 Z M 299.644531 84 " clip-rule="nonzero"/></clipPath><clipPath id="8af298e53c"><path d="M 341 42.738281 L 466 42.738281 L 466 98.988281 L 341 98.988281 Z M 341 42.738281 " clip-rule="nonzero"/></clipPath></defs><g clip-path="url(#bfb7e3beb7)"><path fill="#4d6ce2" d="M 391.847656 90.695312 C 375.4375 87.039062 361.074219 91.507812 345.199219 94.957031 C 329.570312 98.347656 314.308594 96.394531 299.644531 90.027344 C 316.054688 93.6875 330.417969 89.210938 346.292969 85.765625 C 361.925781 82.375 377.183594 84.328125 391.847656 90.695312 " fill-opacity="1" fill-rule="nonzero"/></g><path fill="#c5ebfd" d="M 322.347656 81.765625 C 337.09375 65.300781 360.664062 55.347656 382.128906 62.808594 C 392.554688 66.433594 402.304688 72.320312 413.308594 74.121094 C 425.222656 76.074219 436.148438 71.6875 446.144531 65.546875 L 446.632812 66.132812 C 439.535156 74.050781 430.164062 80.035156 419.464844 81.308594 C 407.75 82.699219 396.636719 78.355469 385.882812 74.296875 C 376.21875 70.640625 367.492188 68.355469 357.097656 70.28125 C 345.160156 72.488281 333.851562 77.492188 322.808594 82.375 L 322.347656 81.765625 " fill-opacity="1" fill-rule="nonzero"/><g clip-path="url(#8af298e53c)"><path fill="#c5ebfd" d="M 341.636719 81.496094 C 351.609375 73.898438 367.945312 75.664062 379.164062 77.898438 C 387.265625 79.519531 394.851562 82.472656 402.738281 84.828125 C 414.886719 88.445312 428.652344 87.8125 439.957031 81.75 C 445.199219 78.941406 449.71875 74.886719 451.957031 69.242188 C 455.332031 60.738281 452.800781 51.828125 451.277344 43.246094 L 451.898438 42.8125 C 462.683594 49.667969 468.445312 63.523438 464.484375 75.890625 C 460.015625 89.875 445.617188 97.433594 431.6875 98.035156 C 410.980469 98.929688 394.742188 86.332031 375.644531 81.023438 C 365.777344 78.277344 351.414062 75.921875 342.117188 82.097656 L 341.636719 81.496094 " fill-opacity="1" fill-rule="nonzero"/></g><g fill="#4d6ce2" fill-opacity="1"><g transform="translate(54.936798, 158.940764)"><g><path d="M 0.84375 0 L 16.796875 0 L 21.207031 -11.355469 L 47.296875 -11.355469 L 51.707031 0 L 67.660156 0 L 41.570312 -65.6875 L 26.933594 -65.6875 Z M 25.054688 -23.085938 L 34.25 -47.109375 L 43.542969 -23.085938 Z M 25.054688 -23.085938 "/></g></g></g><g fill="#4d6ce2" fill-opacity="1"><g transform="translate(119.680486, 158.940764)"><g><path d="M 28.714844 1.3125 C 34.816406 1.3125 40.164062 -0.5625 44.386719 -3.847656 L 44.386719 18.769531 L 58.648438 18.769531 L 58.648438 -49.265625 L 48.046875 -49.265625 L 46.449219 -43.636719 C 42.039062 -48.046875 35.847656 -50.578125 28.714844 -50.578125 C 14.074219 -50.578125 3.660156 -39.789062 3.660156 -24.679688 C 3.660156 -9.382812 14.074219 1.3125 28.714844 1.3125 Z M 17.734375 -24.679688 C 17.734375 -32.65625 23.273438 -38.378906 31.34375 -38.378906 C 39.320312 -38.378906 44.855469 -32.65625 44.855469 -24.679688 C 44.855469 -16.609375 39.320312 -10.980469 31.34375 -10.980469 C 23.273438 -10.980469 17.734375 -16.609375 17.734375 -24.679688 Z M 17.734375 -24.679688 "/></g></g></g><g fill="#4d6ce2" fill-opacity="1"><g transform="translate(181.703044, 158.940764)"><g><path d="M 26.746094 1.3125 C 33.21875 1.3125 39.039062 -0.9375 42.980469 -5.535156 L 44.480469 0 L 55.085938 0 L 55.085938 -49.265625 L 40.820312 -49.265625 L 40.820312 -23.554688 C 40.820312 -15.765625 36.597656 -10.980469 30.121094 -10.980469 C 24.117188 -10.980469 20.457031 -15.203125 20.457031 -22.429688 L 20.457031 -49.265625 L 6.195312 -49.265625 L 6.195312 -21.019531 C 6.195312 -7.320312 13.980469 1.3125 26.746094 1.3125 Z M 26.746094 1.3125 "/></g></g></g><g fill="#4d6ce2" fill-opacity="1"><g transform="translate(240.159989, 158.940764)"><g><path d="M 23.554688 0.9375 C 30.875 0.9375 36.878906 -1.40625 41.101562 -5.722656 L 42.695312 0 L 53.300781 0 L 53.300781 -29.652344 C 53.300781 -42.695312 44.480469 -50.578125 29.746094 -50.578125 C 17.171875 -50.578125 8.914062 -44.574219 7.132812 -33.875 L 20.832031 -33.875 C 21.675781 -37.347656 25.242188 -39.695312 29.839844 -39.695312 C 35.472656 -39.695312 39.320312 -36.503906 39.320312 -31.625 L 39.320312 -29.371094 L 21.488281 -29.371094 C 11.261719 -29.371094 4.691406 -23.460938 4.691406 -14.359375 C 4.691406 -4.878906 11.917969 0.9375 23.554688 0.9375 Z M 18.769531 -14.921875 C 18.769531 -18.296875 21.582031 -20.457031 25.898438 -20.457031 L 39.414062 -20.457031 C 39.132812 -13.792969 33.96875 -9.289062 26.839844 -9.289062 C 21.957031 -9.289062 18.769531 -11.542969 18.769531 -14.921875 Z M 18.769531 -14.921875 "/></g></g></g><g fill="#c5ebfd" fill-opacity="1"><g transform="translate(299.645877, 158.940764)"><g><path d="M 7.132812 0 L 21.394531 0 L 21.394531 -26.652344 C 21.394531 -33.78125 25.335938 -38.378906 31.4375 -38.378906 C 37.347656 -38.378906 41.007812 -33.96875 41.007812 -27.027344 L 41.007812 0 L 55.085938 0 L 55.085938 -26.652344 C 55.085938 -33.78125 59.023438 -38.378906 65.125 -38.378906 C 71.035156 -38.378906 74.695312 -33.96875 74.695312 -27.027344 L 74.695312 0 L 88.960938 0 L 88.960938 -28.714844 C 88.960938 -42.226562 80.890625 -50.578125 68.316406 -50.578125 C 60.808594 -50.578125 54.613281 -47.671875 50.578125 -42.507812 C 47.109375 -47.765625 41.382812 -50.578125 34.34375 -50.578125 C 28.058594 -50.578125 22.710938 -48.421875 19.144531 -44.199219 L 17.734375 -49.265625 L 7.132812 -49.265625 Z M 7.132812 0 "/></g></g></g><g fill="#c5ebfd" fill-opacity="1"><g transform="translate(391.037876, 158.940764)"><g><path d="M 23.554688 0.9375 C 30.875 0.9375 36.878906 -1.40625 41.101562 -5.722656 L 42.695312 0 L 53.300781 0 L 53.300781 -29.652344 C 53.300781 -42.695312 44.480469 -50.578125 29.746094 -50.578125 C 17.171875 -50.578125 8.914062 -44.574219 7.132812 -33.875 L 20.832031 -33.875 C 21.675781 -37.347656 25.242188 -39.695312 29.839844 -39.695312 C 35.472656 -39.695312 39.320312 -36.503906 39.320312 -31.625 L 39.320312 -29.371094 L 21.488281 -29.371094 C 11.261719 -29.371094 4.691406 -23.460938 4.691406 -14.359375 C 4.691406 -4.878906 11.917969 0.9375 23.554688 0.9375 Z M 18.769531 -14.921875 C 18.769531 -18.296875 21.582031 -20.457031 25.898438 -20.457031 L 39.414062 -20.457031 C 39.132812 -13.792969 33.96875 -9.289062 26.839844 -9.289062 C 21.957031 -9.289062 18.769531 -11.542969 18.769531 -14.921875 Z M 18.769531 -14.921875 "/></g></g></g><g fill="#c5ebfd" fill-opacity="1"><g transform="translate(446.77369, 158.940764)"><g><path d="M 30.875 0 L 39.882812 0 L 39.882812 -12.386719 L 33.96875 -12.386719 C 28.339844 -12.386719 25.710938 -15.109375 25.710938 -20.832031 L 25.710938 -37.628906 L 39.226562 -37.628906 L 39.226562 -49.265625 L 25.710938 -49.265625 L 25.710938 -62.027344 L 14.640625 -62.027344 L 13.792969 -55.648438 C 13.042969 -50.578125 11.636719 -49.265625 6.289062 -49.265625 L 1.875 -49.265625 L 1.875 -37.628906 L 11.449219 -37.628906 L 11.449219 -18.675781 C 11.449219 -6.664062 18.394531 0 30.875 0 Z M 30.875 0 "/></g></g></g><g fill="#c5ebfd" fill-opacity="1"><g transform="translate(486.839546, 158.940764)"><g><path d="M 30.402344 1.3125 C 42.507812 1.3125 52.082031 -4.878906 56.398438 -15.296875 L 41.945312 -15.296875 C 39.601562 -12.011719 35.378906 -10.132812 30.6875 -10.132812 C 24.210938 -10.132812 19.144531 -13.792969 17.828125 -20.550781 L 57.335938 -20.550781 C 58.179688 -38.566406 47.484375 -50.578125 30.59375 -50.578125 C 14.640625 -50.578125 3.660156 -39.976562 3.660156 -24.679688 C 3.660156 -9.289062 14.546875 1.3125 30.402344 1.3125 Z M 17.921875 -29.558594 C 19.519531 -35.566406 24.398438 -39.226562 30.6875 -39.226562 C 37.253906 -39.226562 41.945312 -35.566406 43.542969 -29.558594 Z M 17.921875 -29.558594 "/></g></g></g></svg>